<svg xmlns="http://www.w3.org/2000/svg" xmlns:xlink="http://www.w3.org/1999/xlink" viewBox="0 0 600 250"><defs><style>.cls-1{isolation:isolate;}.cls-2{fill:url(#linear-gradient);}.cls-3{fill:url(#linear-gradient-2);}.cls-12,.cls-15,.cls-4,.cls-6,.cls-9{mix-blend-mode:multiply;}.cls-4{fill:url(#linear-gradient-3);}.cls-5{fill:url(#linear-gradient-4);}.cls-6{fill:url(#linear-gradient-5);}.cls-7{fill:url(#linear-gradient-6);}.cls-8{fill:url(#linear-gradient-7);}.cls-9{fill:url(#linear-gradient-8);}.cls-10{fill:url(#linear-gradient-9);}.cls-11{fill:url(#linear-gradient-10);}.cls-12{fill:url(#linear-gradient-11);}.cls-13{fill:url(#linear-gradient-12);}.cls-14{fill:url(#linear-gradient-13);}.cls-15{fill:url(#linear-gradient-14);}</style><linearGradient id="linear-gradient" x1="22.54" y1="79.71" x2="119.43" y2="176.6" gradientUnits="userSpaceOnUse"><stop offset="0" stop-color="#f05b80"/><stop offset="1" stop-color="#4158f0"/></linearGradient><linearGradient id="linear-gradient-2" x1="51.28" y1="50.96" x2="148.18" y2="147.86" xlink:href="#linear-gradient"/><linearGradient id="linear-gradient-3" x1="87.57" y1="134.08" x2="76.93" y2="115.44" gradientUnits="userSpaceOnUse"><stop offset="0" stop-color="#fff"/><stop offset="1" stop-color="#272525"/></linearGradient><linearGradient id="linear-gradient-4" x1="144.93" y1="70.21" x2="254.34" y2="179.63" xlink:href="#linear-gradient"/><linearGradient id="linear-gradient-5" x1="226.52" y1="173.78" x2="198.5" y2="173.78" xlink:href="#linear-gradient-3"/><linearGradient id="linear-gradient-6" x1="286.9" y1="48.99" x2="396.09" y2="158.19" gradientUnits="userSpaceOnUse"><stop offset="0" stop-color="#8f63f2"/><stop offset="1" stop-color="#30c7cf"/></linearGradient><linearGradient id="linear-gradient-7" x1="271.03" y1="64.86" x2="380.23" y2="174.05" xlink:href="#linear-gradient-6"/><linearGradient id="linear-gradient-8" x1="299.15" y1="128.11" x2="299.15" y2="104.92" xlink:href="#linear-gradient-3"/><linearGradient id="linear-gradient-9" x1="408.9" y1="48.99" x2="518.09" y2="158.19" xlink:href="#linear-gradient-6"/><linearGradient id="linear-gradient-10" x1="393.03" y1="64.86" x2="502.23" y2="174.05" xlink:href="#linear-gradient-6"/><linearGradient id="linear-gradient-11" x1="421.15" y1="128.11" x2="421.15" y2="104.92" xlink:href="#linear-gradient-3"/><linearGradient id="linear-gradient-12" x1="496.1" y1="77.29" x2="596.24" y2="177.43" gradientUnits="userSpaceOnUse"><stop offset="0" stop-color="#70e8bc"/><stop offset="1" stop-color="#ff616a"/></linearGradient><linearGradient id="linear-gradient-13" x1="467.36" y1="106.03" x2="567.5" y2="206.18" xlink:href="#linear-gradient-12"/><linearGradient id="linear-gradient-14" x1="535.7" y1="139.31" x2="546.57" y2="158.07" gradientUnits="userSpaceOnUse"><stop offset="0" stop-color="#272525"/><stop offset="1" stop-color="#fff"/></linearGradient></defs><title>yotta-extenso</title><g class="cls-1"><g id="Camada_1" data-name="Camada 1"><path class="cls-2" d="M99.28,147.51c0-.08.07-.16.1-.24s.07-.23.1-.34l0-.12c0-.11,0-.23.07-.34l0-.13c0-.1,0-.2,0-.3s0-.12,0-.18,0-.16,0-.25,0-.16,0-.25,0-.12,0-.18,0-.21,0-.31l0-.12c0-.12,0-.23-.07-.35l0-.1c0-.12-.07-.24-.11-.35l-.08-.19c0-.08-.06-.17-.1-.25s-.15-.3-.23-.44h0l-46.56-78-.07-.1-.15-.23L52,64.57l-.15-.18-.18-.2L51.57,64l-.21-.19-.16-.13L51,63.57l-.18-.12-.21-.13-.22-.12-.2-.1-.25-.1-.19-.07-.26-.08-.21-.05L49,62.75l-.25,0-.22,0H15.45a5,5,0,0,0,0,10H45.31l43.59,73L78.2,163.51,51.47,120.25A5,5,0,0,0,43,125.49L74,175.7a5,5,0,0,0,8.57-.19l0-.05L99,148.16a5,5,0,0,0,.24-.45Z"/><path class="cls-3" d="M132.15,62.57a5,5,0,0,0-2.12-.16l-38-.18h-.39l-.22,0-.25,0-.24,0-.22.06-.26.08-.2.07-.27.11-.18.09-.26.14-.08,0-.1.06-.23.15-.19.14-.18.15-.2.18-.14.14-.2.22-.12.15-.17.23-.11.17-.14.22-.11.21-.1.2-.1.25-.07.19c0,.09-.06.18-.08.27l-.05.2c0,.08,0,.17-.05.26s0,.16,0,.24,0,.15,0,.23,0,.19,0,.28,0,.07,0,.11,0,.06,0,.1,0,.2,0,.3,0,.13,0,.2,0,.18,0,.28,0,.15,0,.22,0,.16.06.24l.07.24.07.21.11.26.09.18.14.27,0,.08,10.73,18a5,5,0,1,0,8.54-5.1l-6.21-10.39,22.82.11A55.93,55.93,0,0,1,72.76,105.5,55.23,55.23,0,0,1,19.69,66.33a5,5,0,0,0-9.51,2.93,66,66,0,0,0,23.33,33.13,65.48,65.48,0,0,0,78.7-.15,66,66,0,0,0,23.28-33.47A5,5,0,0,0,132.15,62.57Z"/><path class="cls-4" d="M70.87,115.42l11.29,18.9H93.75L82.09,114.79a66.43,66.43,0,0,1-9.32.67C72.13,115.45,71.5,115.43,70.87,115.42Z"/><path class="cls-5" d="M234.93,70.6c-9.71-7.82-23.25-12.13-38.15-12.13-32.14,0-54,19.07-54.51,47.46,0,0,0,.05,0,.08v34.66A40.84,40.84,0,0,0,182,181.46h1.45a36.43,36.43,0,0,0,13.17-2.78,38.94,38.94,0,0,0,13.51,2.78h1.45a40.84,40.84,0,0,0,39.72-40.78V106C251.3,91.47,245.64,79.22,234.93,70.6Zm6.41,70.08a30.88,30.88,0,0,1-30.49,30.84c-1,0-2-.07-2.92-.18,1.12-1,2.22-2.11,3.28-3.29a40.7,40.7,0,0,0,10.54-27.37V98.94a26.53,26.53,0,0,0-15-23.78,5,5,0,1,0-4.31,9,16.52,16.52,0,0,1,9.31,14.81v41.74a30.77,30.77,0,0,1-8,20.69,33.89,33.89,0,0,1-7.29,6.18c-8.9-5.25-14.8-15.2-14.8-26.87V98.94a16.39,16.39,0,0,1,9.31-14.81,5,5,0,0,0-4.32-9,26.35,26.35,0,0,0-14.95,23.78v41.74A41.2,41.2,0,0,0,185,171.39c-.76.07-1.53.12-2.31.13a30.88,30.88,0,0,1-30.49-30.84V106.06c.39-22.86,17.88-37.63,44.56-37.63,12.63,0,24,3.52,31.91,9.92C237,85,241.35,94.59,241.35,106Z"/><path class="cls-6" d="M210.86,171.52c-1,0-2-.07-2.92-.18a39.26,39.26,0,0,1-11.33,7.34,39,39,0,0,0,13.51,2.78h1.45A40.51,40.51,0,0,0,228,177.53V166.1A30.66,30.66,0,0,1,210.86,171.52Z"/><path class="cls-7" d="M362.19,66.45A5,5,0,0,0,357.85,69a55.46,55.46,0,0,1-94.69-.2,5,5,0,0,0-8.5,5.17A65.41,65.41,0,0,0,366.44,74a5,5,0,0,0,.73-2.59v0A5,5,0,0,0,362.19,66.45Z"/><path class="cls-8" d="M362.19,66.42h-63a5,5,0,0,0-5,5V177.59a5,5,0,0,0,5,5h27.07a5,5,0,0,0,5-5V113.89a5,5,0,0,0-10,0v58.73H304.12V76.37h58.07a5,5,0,0,0,0-10Z"/><path class="cls-9" d="M294.17,128.45h10V105.13a65.64,65.64,0,0,1-10-1.75Z"/><path class="cls-10" d="M484.19,66.45A5,5,0,0,0,479.85,69a55.46,55.46,0,0,1-94.69-.2,5,5,0,0,0-8.5,5.17A65.41,65.41,0,0,0,488.44,74a5,5,0,0,0,.73-2.59v0A5,5,0,0,0,484.19,66.45Z"/><path class="cls-11" d="M484.19,66.42h-63a5,5,0,0,0-5,5V177.59a5,5,0,0,0,5,5h27.07a5,5,0,0,0,5-5V113.89a5,5,0,0,0-10,0v58.73H426.12V76.37h58.07a5,5,0,0,0,0-10Z"/><path class="cls-12" d="M416.17,128.45h10V105.13a65.64,65.64,0,0,1-10-1.75Z"/><path class="cls-13" d="M590.54,171.73H560.68l-43.59-73L527.72,81l29.18,48.83a5,5,0,1,0,8.54-5.1L532,68.71a5,5,0,0,0-8.6.1l-.05.08L507,96.19c-.09.15-.17.29-.24.45l-.09.21c0,.08-.07.16-.1.23s-.07.23-.1.34l0,.12c0,.11,0,.23-.07.34l0,.13c0,.1,0,.2,0,.3s0,.12,0,.18,0,.16,0,.25,0,.16,0,.25,0,.12,0,.18,0,.21,0,.31l0,.13c0,.12,0,.23.07.35l0,.11c0,.12.07.24.11.35l.08.2c0,.08.06.16.1.25a5,5,0,0,0,.23.44h0l46.56,78,0,.07q.13.21.28.4l.08.11a5,5,0,0,0,.38.42l.14.13.3.26.16.12.38.25.09.06a5,5,0,0,0,.53.25l.1,0,.45.15.15,0,.43.08.16,0a5,5,0,0,0,.54,0h32.73a5,5,0,1,0,0-10Z"/><path class="cls-14" d="M595.81,175.09A66,66,0,0,0,572.48,142a65.48,65.48,0,0,0-78.7.15,66,66,0,0,0-23.28,33.47,5,5,0,0,0,4.77,6.4,4.9,4.9,0,0,0,.65-.05l38.08.18h.09l.52,0,.19,0,.42-.08.17,0a5,5,0,0,0,1.12-.48l.06,0,.1-.06.23-.15.19-.14.18-.15.2-.18.14-.14.2-.21.12-.15.17-.23.12-.17.14-.22.11-.21.1-.2.1-.25.07-.19c0-.09.06-.18.08-.27l.05-.2c0-.08,0-.17.05-.26s0-.16,0-.24,0-.15,0-.23,0-.19,0-.28,0-.07,0-.11,0-.06,0-.1,0-.2,0-.3,0-.13,0-.2,0-.18,0-.28,0-.15,0-.22,0-.16-.06-.24l-.07-.24-.07-.21-.11-.26-.09-.18-.14-.27,0-.08-10.73-18a5,5,0,1,0-8.54,5.1l6.21,10.39L482.4,172a55.93,55.93,0,0,1,50.83-33.17A55.23,55.23,0,0,1,586.3,178a5,5,0,1,0,9.51-2.92Z"/><path class="cls-15" d="M541.4,139.45a56.58,56.58,0,0,0-8.17-.6c-1.24,0-2.47,0-3.7.13l12.71,21.29h11.59Z"/></g></g></svg>