<?xml version="1.0" encoding="utf-8"?>
<!-- Generator: Adobe Illustrator 21.0.0, SVG Export Plug-In . SVG Version: 6.00 Build 0)  -->
<svg version="1.1" id="Camada_1" xmlns="http://www.w3.org/2000/svg" xmlns:xlink="http://www.w3.org/1999/xlink" x="0px" y="0px"
	 viewBox="0 0 250 250" style="enable-background:new 0 0 250 250;" xml:space="preserve">
<style type="text/css">
	.st0{fill:url(#SVGID_1_);}
	.st1{fill:url(#SVGID_2_);}
	.st2{fill:url(#SVGID_3_);}
</style>
<g>
	<g>
		<linearGradient id="SVGID_1_" gradientUnits="userSpaceOnUse" x1="31.4256" y1="50.0612" x2="211.8089" y2="230.4444">
			<stop  offset="0" style="stop-color:#F05B80"/>
			<stop  offset="0.9987" style="stop-color:#4158F0"/>
		</linearGradient>
		<path class="st0" d="M174.3,176.3c0.1-0.1,0.1-0.3,0.2-0.4c0.1-0.2,0.1-0.4,0.2-0.6c0-0.1,0-0.1,0.1-0.2c0.1-0.2,0.1-0.4,0.1-0.6
			c0-0.1,0-0.2,0-0.2c0-0.2,0-0.4,0.1-0.6c0-0.1,0-0.2,0-0.3c0-0.2,0-0.3,0-0.5c0-0.2,0-0.3,0-0.5c0-0.1,0-0.2,0-0.3
			c0-0.2,0-0.4-0.1-0.6c0-0.1,0-0.2,0-0.2c0-0.2-0.1-0.4-0.1-0.7c0-0.1,0-0.1-0.1-0.2c-0.1-0.2-0.1-0.4-0.2-0.7
			c0-0.1-0.1-0.2-0.1-0.4c-0.1-0.2-0.1-0.3-0.2-0.5c-0.1-0.3-0.3-0.6-0.4-0.8c0,0,0,0,0,0L87,22.8c0-0.1-0.1-0.1-0.1-0.2
			c-0.1-0.1-0.2-0.3-0.3-0.4c-0.1-0.1-0.2-0.2-0.3-0.4c-0.1-0.1-0.2-0.2-0.3-0.3c-0.1-0.1-0.2-0.2-0.3-0.4c-0.1-0.1-0.2-0.2-0.3-0.3
			c-0.1-0.1-0.3-0.2-0.4-0.4c-0.1-0.1-0.2-0.2-0.3-0.2c-0.1-0.1-0.3-0.2-0.4-0.3c-0.1-0.1-0.2-0.2-0.3-0.2c-0.1-0.1-0.3-0.2-0.4-0.2
			c-0.1-0.1-0.3-0.1-0.4-0.2c-0.1-0.1-0.2-0.1-0.4-0.2c-0.2-0.1-0.3-0.1-0.5-0.2c-0.1,0-0.2-0.1-0.4-0.1c-0.2-0.1-0.3-0.1-0.5-0.1
			c-0.1,0-0.3-0.1-0.4-0.1c-0.2,0-0.3-0.1-0.5-0.1c-0.2,0-0.3-0.1-0.5-0.1c-0.1,0-0.3,0-0.4,0c-0.2,0-0.4,0-0.5,0
			c-0.1,0-0.1,0-0.2,0H18.2c-5.1,0-9.3,4.1-9.3,9.3c0,5.1,4.1,9.3,9.3,9.3h55.6L155,172.7L135,206.1l-49.8-80.5
			c-2.7-4.4-8.4-5.7-12.7-3c-4.4,2.7-5.7,8.4-3,12.7l57.8,93.5c1.8,2.8,4.8,4.4,7.9,4.4c1.7,0,3.3-0.4,4.9-1.4
			c1.4-0.9,2.5-2,3.2-3.4c0,0,0-0.1,0.1-0.1l30.4-50.8c0.2-0.3,0.3-0.5,0.4-0.8C174.2,176.5,174.2,176.4,174.3,176.3z"/>
		<linearGradient id="SVGID_2_" gradientUnits="userSpaceOnUse" x1="84.9319" y1="-3.4452" x2="265.3146" y2="176.9375">
			<stop  offset="0" style="stop-color:#F05B80"/>
			<stop  offset="0.9987" style="stop-color:#4158F0"/>
		</linearGradient>
		<path class="st1" d="M235.5,18.2c-1.3-0.4-2.7-0.5-3.9-0.3l-70.8-0.3c0,0,0,0,0,0c-0.1,0-0.1,0-0.2,0c-0.2,0-0.3,0-0.5,0
			c-0.1,0-0.3,0-0.4,0c-0.2,0-0.3,0-0.5,0.1c-0.1,0-0.3,0.1-0.4,0.1c-0.1,0-0.3,0.1-0.4,0.1c-0.2,0-0.3,0.1-0.5,0.1
			c-0.1,0-0.2,0.1-0.4,0.1c-0.2,0.1-0.3,0.1-0.5,0.2c-0.1,0-0.2,0.1-0.3,0.2c-0.2,0.1-0.3,0.2-0.5,0.3c0,0-0.1,0.1-0.2,0.1
			c-0.1,0-0.1,0.1-0.2,0.1c-0.1,0.1-0.3,0.2-0.4,0.3c-0.1,0.1-0.2,0.2-0.4,0.3c-0.1,0.1-0.2,0.2-0.3,0.3c-0.1,0.1-0.3,0.2-0.4,0.3
			c-0.1,0.1-0.2,0.2-0.3,0.3c-0.1,0.1-0.2,0.3-0.4,0.4c-0.1,0.1-0.1,0.2-0.2,0.3c-0.1,0.1-0.2,0.3-0.3,0.4c-0.1,0.1-0.1,0.2-0.2,0.3
			c-0.1,0.1-0.2,0.3-0.3,0.4c-0.1,0.1-0.1,0.3-0.2,0.4c-0.1,0.1-0.1,0.3-0.2,0.4c-0.1,0.2-0.1,0.3-0.2,0.5c0,0.1-0.1,0.2-0.1,0.4
			c-0.1,0.2-0.1,0.3-0.2,0.5c0,0.1-0.1,0.2-0.1,0.4c0,0.2-0.1,0.3-0.1,0.5c0,0.1-0.1,0.3-0.1,0.4c0,0.1,0,0.3,0,0.4
			c0,0.2,0,0.3,0,0.5c0,0.1,0,0.1,0,0.2c0,0.1,0,0.1,0,0.2c0,0.2,0,0.4,0,0.6c0,0.1,0,0.3,0,0.4c0,0.2,0,0.3,0.1,0.5
			c0,0.1,0,0.3,0.1,0.4c0,0.2,0.1,0.3,0.1,0.4c0,0.2,0.1,0.3,0.1,0.5c0,0.1,0.1,0.3,0.1,0.4c0.1,0.2,0.1,0.3,0.2,0.5
			c0,0.1,0.1,0.2,0.2,0.3c0.1,0.2,0.2,0.3,0.3,0.5c0,0.1,0.1,0.1,0.1,0.2l20,33.4c1.7,2.9,4.8,4.5,8,4.5c1.6,0,3.3-0.4,4.7-1.3
			c4.4-2.6,5.8-8.3,3.2-12.7l-11.6-19.3l42.5,0.2c-16.3,36.9-53.6,61.7-94.6,61.7c-45.7,0-85.4-29.3-98.8-72.9
			c-1.5-4.9-6.7-7.6-11.6-6.1c-4.9,1.5-7.6,6.7-6.1,11.6C15.9,55,31.3,76.9,51.9,92.3c21.2,15.9,46.5,24.3,73.1,24.3
			c26.8,0,52.2-8.5,73.4-24.6c20.6-15.6,36-37.7,43.3-62.3C243.2,24.8,240.4,19.6,235.5,18.2z"/>
	</g>
	<linearGradient id="SVGID_3_" gradientUnits="userSpaceOnUse" x1="152.4836" y1="151.2835" x2="132.6884" y2="116.5863">
		<stop  offset="0" style="stop-color:#FFFFFF"/>
		<stop  offset="0.9987" style="stop-color:#272525"/>
	</linearGradient>
	<path class="st2" d="M121.4,116.5l21,35.2H164l-21.7-36.4c-5.7,0.8-11.5,1.2-17.4,1.2C123.7,116.6,122.6,116.6,121.4,116.5z"/>
</g>
</svg>
