<?xml version="1.0" encoding="UTF-8"?>
<!DOCTYPE svg PUBLIC "-//W3C//DTD SVG 1.1//EN" "http://www.w3.org/Graphics/SVG/1.1/DTD/svg11.dtd">
<!-- Creator: CorelDRAW 2017 -->
<svg xmlns="http://www.w3.org/2000/svg" xml:space="preserve" width="33.8666mm" height="16.9332mm" version="1.1" style="shape-rendering:geometricPrecision; text-rendering:geometricPrecision; image-rendering:optimizeQuality; fill-rule:evenodd; clip-rule:evenodd"
viewBox="0 0 3386.66 1693.32"
 xmlns:xlink="http://www.w3.org/1999/xlink">
 <defs>
  <style type="text/css">
   <![CDATA[
    .fil0 {fill:#FEC724}
    .fil1 {fill:white;fill-rule:nonzero}
   ]]>
  </style>
 </defs>
 <g id="Camada_x0020_1">
  <metadata id="CorelCorpID_0Corel-Layer"/>
  <g id="_832027344">
   <polygon class="fil0" points="2177.81,1207.32 2110.89,1295.79 2149.06,1324.65 2215.97,1236.2 "/>
   <path class="fil0" d="M2363.01 1408.68l0 -2.98 0.41 0.02 0.04 -136.62 71.12 -1.65 1.31 44.05c96.56,-6.26 120.02,-30.6 182.47,-51.83l-11.77 -24.43 22.4 -13.77 14.35 22.61c50.04,-35.92 131.85,-96.4 153.67,-153.32l-24.02 -13.43 10.38 -23.77 29.77 13.59c25.15,-63.24 47.65,-103.56 53.55,-184.75l-47.37 0.02 -0.78 -78.11 47.57 -0.31c-0.54,-56.52 -30.32,-144.39 -54.72,-183.56l-23.86 12.88 -14.85 -20.85 24.22 -15.78c-20.49,-44.37 -109.06,-135.87 -155.29,-153.68l-11.72 21.81c-12.27,-4.58 -11.92,-6.7 -24.01,-9.66l12.91 -27.23c-55.58,-25.05 -110.85,-49.77 -183.24,-52.46l0.05 43.86 -72.57 0.34c0.09,-47.54 0.19,-95.26 0.19,-142.71 776.78,0 815.81,1119 -0.21,1131.72z"/>
   <polygon class="fil0" points="2268.6,436.3 2238.27,364.99 2207.51,378.08 2237.84,449.37 "/>
   <path class="fil1" d="M1229.99 967.01c-16.43,0 -29.88,-4.4 -40.37,-13.18 -10.49,-8.78 -16.29,-20.55 -17.42,-35.28 -0.57,-11.9 2.69,-22.67 9.76,-32.31 7.09,-9.63 16.3,-15.3 27.64,-16.99 11.89,-2.27 22.38,-0.14 31.45,6.37 9.06,6.52 15.01,15.72 17.85,27.63 1.14,3.4 1.98,6.51 2.55,9.35 0.56,2.83 1.42,5.67 2.55,8.5 4.53,13.03 3.53,24.23 -2.98,33.57 -6.52,9.36 -16.86,13.46 -31.03,12.34zm712.51 142.14c-2.86,5.75 -5.83,11.66 -8.91,17.71 -6.8,13.31 -14.17,26.48 -22.11,39.53 -7.94,13.03 -16.15,25.21 -24.65,36.54 -2.83,2.84 -5.24,5.96 -7.22,9.36 -1.98,3.39 -4.4,6.51 -7.23,9.34 -2.83,5.1 -6.37,10.06 -10.62,14.89 -4.26,4.8 -8.64,9.2 -13.19,13.17 -14.16,11.33 -28.75,15.58 -43.77,12.74 -15.01,-2.83 -27.34,-11.61 -36.97,-26.35 -8.51,-15.3 -12.76,-32.02 -12.76,-50.15 -0.56,-19.84 0.29,-39.24 2.56,-58.22 2.27,-18.99 5.66,-38.12 10.2,-57.39 1.13,-3.96 2.11,-8.07 2.97,-12.31 0.85,-4.26 1.55,-8.37 2.13,-12.33 -0.58,0 -1.14,-0.14 -1.71,-0.42 -0.56,-0.29 -1.12,-0.44 -1.7,-0.44 -2.83,2.83 -5.37,5.67 -7.65,8.51 -2.26,2.83 -4.81,6.23 -7.65,10.2 -7.93,10.2 -15.44,20.68 -22.53,31.45 -7.07,10.77 -14.02,21.53 -20.82,32.3 -5.1,7.37 -10.2,14.74 -15.29,22.1 -5.11,7.37 -10.77,14.17 -17,20.4 -13.03,13.04 -26.36,18.98 -39.97,17.85 -13.59,-1.14 -25.2,-9.35 -34.84,-24.64 -8.51,-11.34 -14.45,-22.68 -17.85,-34.01 -3.4,-12.47 -6.52,-24.65 -9.35,-36.55 -2.83,-11.9 -5.67,-24.08 -8.51,-36.55 -1.13,-2.83 -1.83,-5.82 -2.13,-8.93 -0.27,-3.12 -0.98,-6.95 -2.11,-11.48 -2.83,4.53 -5.1,7.94 -6.81,10.21 -1.7,2.26 -3.11,4.81 -4.24,7.65 -6.24,15.29 -12.47,30.6 -18.71,45.9 -6.22,15.3 -12.46,30.6 -18.69,45.9 -5.68,14.17 -10.64,28.61 -14.88,43.35 -4.25,14.74 -8.93,29.19 -14.03,43.36 -2.27,5.09 -4.25,9.91 -5.95,14.44 -1.7,4.54 -3.97,9.07 -6.8,13.6 -3.96,6.24 -8.92,11.06 -14.87,14.45 -5.95,3.41 -12.9,4.54 -20.83,3.41 -7.93,-0.56 -14.31,-2.98 -19.13,-7.23 -4.82,-4.25 -8.36,-9.77 -10.61,-16.58 -2.85,-9.63 -5.4,-19.26 -7.66,-28.89 -1.35,-5.75 -2.6,-11.59 -3.75,-17.54 -6.82,12.03 -13.99,24.24 -21.51,36.61 -4.52,8.5 -9.34,15.59 -14.44,21.25 -13.04,20.97 -27.78,41.94 -44.21,62.9 -6.23,7.95 -13.17,15.45 -20.82,22.53 -7.65,7.09 -16.02,13.17 -25.08,18.28 -33.43,18.14 -62.34,13.32 -86.71,-14.45 -8.5,-9.64 -15.3,-19.84 -20.39,-30.6 -5.1,-10.77 -9.07,-21.82 -11.91,-33.15 -7.94,-32.3 -12.46,-64.89 -13.6,-97.76 -1.13,-32.87 1.42,-66.02 7.65,-99.46 0.57,-5.09 1.7,-10.47 3.41,-16.14 1.69,-5.67 3.96,-11.05 6.8,-16.15 10.76,-22.67 26.91,-33.16 48.44,-31.46 9.64,1.14 18.14,5.1 25.5,11.9 7.38,6.81 12.47,16.44 15.31,28.9 3.4,13.04 5.1,25.78 5.1,38.26 -1.14,18.13 -2.69,35.98 -4.68,53.54 -1.98,17.58 -3.53,35.43 -4.67,53.56 -0.58,10.2 -1.27,20.26 -2.13,30.18 -0.85,9.92 -1.84,19.69 -2.97,29.32 0,3.4 0,6.52 0,9.35 0,2.84 0.56,5.67 1.7,8.51 0.56,3.4 2.41,7.22 5.52,11.47 3.12,4.25 8.92,3.83 17.43,-1.27l0.85 0 0.84 -0.86c0,0 0.58,-0.56 1.71,-1.69 1.13,0 1.69,-0.14 1.69,-0.43 0,-0.29 0.29,-0.42 0.86,-0.42l4.25 -4.25 5.95 -5.95c7.36,-7.37 15.59,-16.87 24.65,-28.48 9.07,-11.62 19.27,-26.49 30.6,-44.62 9.64,-15.31 18.42,-30.33 26.36,-45.05 7.93,-14.74 15.02,-28.06 21.24,-39.96l4.43 -9.18 -2.12 -15.43c-3.97,-29.18 -7.93,-58.22 -11.9,-87.12 -1.13,-7.94 -2.41,-15.3 -3.83,-22.1 -1.41,-6.81 -2.69,-13.88 -3.82,-21.26 -0.57,-2.83 -1.27,-5.95 -2.13,-9.34 -0.85,-3.4 -0.99,-6.53 -0.42,-9.36 1.14,-11.34 6.52,-19.55 16.15,-24.65 9.64,-5.1 19.26,-4.54 28.9,1.7 4.54,2.83 8.5,6.37 11.89,10.63 3.41,4.25 6.52,8.64 9.36,13.17 7.36,11.33 12.61,23.51 15.72,36.56 3.11,13.03 6.1,26.06 8.93,39.09 1.7,7.93 3.26,15.87 4.68,23.81 1.42,7.93 3.54,16.15 6.38,24.65l7.64 -15.31c8.5,-20.39 18.14,-40.37 28.9,-59.93 10.77,-19.54 23.8,-37.54 39.11,-53.97 2.83,-2.83 5.67,-5.81 8.5,-8.92 2.83,-3.13 6.23,-6.09 10.2,-8.93 14.17,-11.33 28.47,-15.02 42.92,-11.05 14.45,3.96 24.79,14.45 31.03,31.45 2.84,7.37 4.82,14.73 5.95,22.1 1.13,7.37 2.26,15.02 3.4,22.95 1.69,15.88 3.26,31.74 4.68,47.61 1.42,15.86 3.25,31.45 5.52,46.75 0,3.4 0.85,7.65 2.55,12.74 2.83,-2.82 4.96,-4.95 6.38,-6.37 1.41,-1.41 2.68,-3.25 3.82,-5.52 6.24,-9.64 12.61,-19.41 19.12,-29.33 6.52,-9.92 13.18,-19.7 19.99,-29.32 11.33,-15.31 23.09,-29.75 35.27,-43.35 12.19,-13.61 26.49,-25.79 42.92,-36.56 2.83,-2.83 6.1,-5.38 9.78,-7.65 3.69,-2.27 7.51,-3.96 11.48,-5.1 0.84,-0.33 1.67,-0.64 2.5,-0.93 -1.31,-4.35 -2.46,-8.97 -3.44,-13.87 -4.54,-20.4 -8.93,-40.65 -13.18,-60.77 -4.25,-20.12 -7.8,-40.38 -10.63,-60.78 -8.5,-49.3 -14.59,-98.32 -18.27,-147.05 -3.68,-48.75 -4.4,-97.76 -2.13,-147.07 1.14,-20.4 2.55,-40.94 4.25,-61.62 1.71,-20.68 5.67,-40.94 11.91,-60.78 2.26,-7.37 4.67,-14.45 7.21,-21.24 2.56,-6.8 5.82,-13.33 9.78,-19.56 5.67,-9.06 12.62,-15.72 20.83,-19.97 8.22,-4.25 16.44,-6.09 24.65,-5.53 8.22,0.57 16.01,3.54 23.38,8.92 7.37,5.39 13.31,12.89 17.85,22.53 2.83,7.93 5.38,16.01 7.65,24.22 2.27,8.22 3.96,16.3 5.1,24.23 1.13,20.4 1.84,41.09 2.13,62.06 0.28,20.96 0.7,41.93 1.27,62.9l0 38.25 0.84 0c0,0 0.58,0.57 1.72,1.7 2.83,-5.66 5.94,-9.92 9.34,-12.75 13.6,-22.67 28.33,-44.77 44.2,-66.3 7.37,-9.63 15.16,-18.42 23.38,-26.35 8.21,-7.94 17.99,-15.02 29.32,-21.25 23.23,-14.17 45.9,-18.56 68,-13.18 22.11,5.38 40.52,19.69 55.26,42.92 5.67,9.64 10.76,19.27 15.3,28.91 2.83,-0.57 5.66,-1.14 8.49,-1.7 2.85,-0.57 5.67,-1.13 8.51,-1.71 9.63,-2.26 19.13,-4.24 28.47,-5.94 9.36,-1.7 18.85,-3.12 28.49,-4.25 12.46,-1.7 23.51,-1.42 33.15,0.85 6.23,1.13 11.19,3.96 14.88,8.5 3.67,4.53 5.52,9.91 5.52,16.14 0,12.48 -6.24,20.41 -18.71,23.81 -5.09,2.27 -10.2,3.82 -15.3,4.67 -5.1,0.85 -10.2,1.85 -15.29,2.98 -9.64,2.83 -19.42,5.25 -29.34,7.23 -9.91,1.98 -19.68,3.83 -29.32,5.52 -1.13,1.13 -2.69,1.84 -4.68,2.13 -1.98,0.28 -3.82,0.98 -5.52,2.12 -1.13,2.83 -1.7,5.95 -1.7,9.36 0,3.38 0,7.08 0,11.04 -1.13,23.24 -4.39,46.04 -9.77,68.43 -5.39,22.38 -13.46,44.07 -24.23,65.03 -5.1,9.06 -10.77,17.84 -17,26.36 -6.23,8.48 -12.47,16.71 -18.7,24.64 -10.2,13.03 -23.81,22.1 -40.81,27.2 -19.83,6.23 -38.53,5.24 -56.1,-2.97 -17.57,-8.22 -30.02,-22.24 -37.39,-42.08 -4.54,-10.2 -7.23,-20.54 -8.09,-31.02 -0.84,-10.49 -0.7,-21.4 0.43,-32.74 2.83,-24.36 9.21,-46.75 19.13,-67.15 9.92,-20.4 24.51,-38.25 43.77,-53.55 9.63,-7.93 19.41,-15.45 29.33,-22.53 9.92,-7.08 20.54,-14.59 31.88,-22.52l0 -2.55c-4.53,-11.34 -9.21,-17.86 -14.03,-19.55 -4.82,-1.71 -12.04,1.13 -21.68,8.49 -10.76,7.94 -20.12,16.72 -28.05,26.36 -23.23,30.6 -43.49,62.47 -60.78,95.63 -17.28,33.15 -32.44,67.58 -45.47,103.28 -4.53,14.17 -6.95,28.47 -7.22,42.93 -0.29,14.44 -0.43,29.04 -0.43,43.77 0,19.84 0.43,39.53 1.28,59.08 0.84,19.55 1.84,38.96 2.96,58.22l0 9.35c0,9.64 -2.4,17.86 -7.22,24.66 -4.68,6.62 -11.12,11.36 -19.29,14.21 1.65,7.76 2.3,15.32 1.96,22.69 -1.14,16.43 -2.83,32.44 -5.1,48.03 -2.27,15.58 -4.53,31.02 -6.8,46.32 -1.69,13.03 -3.54,25.78 -5.52,38.25 -1.99,12.47 -4.4,25.78 -7.23,39.95 2.83,-1.7 4.53,-3.11 5.1,-4.25 11.34,-15.3 24.08,-35.14 38.25,-59.5 14.17,-24.37 27.48,-50.44 39.95,-78.2 0.2,-0.46 0.39,-0.92 0.6,-1.36 -0.89,-8.87 -1.15,-17.73 -0.78,-26.59 1.13,-27.21 6.38,-52.85 15.72,-76.93 9.35,-24.09 22.1,-45.77 38.26,-65.04 16.15,-19.26 33.86,-34.85 53.13,-46.74 16.43,-10.2 33.43,-17.43 51,-21.68 17.56,-4.26 35.42,-4.68 53.55,-1.27 21.53,3.96 39.81,12.17 54.83,24.65 15.02,12.47 25.92,26.91 32.72,43.35 6.8,16.43 8.92,34.14 6.37,53.13 -2.55,18.98 -10.04,36.68 -22.51,53.12 -18.71,24.94 -40.81,46.18 -66.31,63.75 -16.43,12.47 -34.57,19.84 -54.41,22.11 -18.7,3.39 -35.69,0.84 -51,-7.65 -0.56,11.33 0.72,20.82 3.83,28.47 3.11,7.65 7.23,14.03 12.33,19.13 5.1,5.1 11.04,8.92 17.84,11.47 6.8,2.55 14.17,4.11 22.11,4.68 14.16,1.13 27.34,0 39.52,-3.4 12.19,-3.41 23.95,-9.07 35.28,-17 12.47,-8.5 23.37,-17.99 32.72,-28.48 9.36,-10.49 18,-22.24 25.93,-35.27 5.1,-9.64 10.06,-19.28 14.88,-28.91 4.81,-9.64 9.77,-19.55 14.87,-29.74 2.83,-6.24 5.67,-12.05 8.5,-17.44 2.84,-5.37 5.95,-11.19 9.35,-17.42 4.54,-6.8 10.2,-11.34 17,-13.6 6.81,-2.27 13.32,-1.98 19.56,0.85 14.16,7.37 19.82,19.26 17,35.7 -1.14,2.27 -1.7,4.26 -1.7,5.95 0,1.7 -0.28,3.12 -0.86,4.25 -12.46,34 -27.77,65.6 -45.9,94.78 -18.13,29.19 -41.65,55.4 -70.54,78.63 -22.11,18.14 -46.05,30.74 -71.84,37.83 -25.78,7.08 -53.12,8.07 -82.03,2.97 -27.76,-4.53 -51.14,-14.59 -70.12,-30.17 -14.53,-11.94 -26.66,-26.95 -36.38,-45.01zm81.85 -103.33c6.24,-1.7 12.05,-3.11 17.43,-4.25 5.38,-1.13 10.63,-2.55 15.73,-4.24 5.09,-1.14 10.2,-2.41 15.3,-3.83 5.1,-1.42 9.91,-3.54 14.45,-6.38 10.77,-6.23 20.68,-13.6 29.74,-22.1 9.08,-8.5 17.85,-17.85 26.36,-28.05 3.4,-4.53 6.23,-9.07 8.5,-13.6 5.1,-13.03 4.25,-24.52 -2.55,-34.42 -6.81,-9.92 -17,-14.32 -30.6,-13.19 -5.1,1.14 -10.34,2.41 -15.73,3.83 -5.38,1.42 -10.34,3.55 -14.87,6.37 -20.97,14.17 -36.28,31.46 -45.9,51.86 -9.64,20.4 -15.59,43.07 -17.86,68zm455.25 -283.23c4.28,3.21 5.46,7.83 3.53,13.82 -0.42,1.07 -0.91,2.04 -1.44,2.9 -0.54,0.85 -1.02,1.71 -1.45,2.56 -5.36,9.43 -11.13,18.48 -17.35,27.16 -6.22,8.68 -12.86,17.08 -19.92,25.23 -2.15,2.78 -4.5,5.03 -7.07,6.74 -5.36,4.28 -10.98,5.95 -16.88,4.98 -5.88,-0.96 -10.76,-4.23 -14.62,-9.8 -2.13,-3 -3.7,-6.16 -4.65,-9.48 -0.97,-3.32 -1.67,-6.69 -2.09,-10.12 -0.65,-7.5 -0.75,-14.89 -0.32,-22.16 0.42,-7.29 1.18,-14.36 2.24,-21.22 0.43,-3.21 0.91,-6.27 1.45,-9.16 0.53,-2.89 1.02,-5.83 1.45,-8.84l2.89 -17.67c1.28,-7.29 2.62,-14.52 4.01,-21.7 1.39,-7.16 2.63,-14.4 3.7,-21.69 0.43,-1.07 0.69,-2.13 0.8,-3.21 0.11,-1.06 0.38,-2.14 0.81,-3.21 -0.86,-0.43 -1.39,-0.75 -1.61,-0.96 -0.64,1.06 -1.34,2.03 -2.09,2.89 -0.75,0.86 -1.44,1.82 -2.09,2.89 -11.56,15.85 -21.42,32.4 -29.57,49.65 -8.13,17.24 -14.88,35.29 -20.24,54.15 -1.93,6.42 -3.86,12.8 -5.78,19.12 -1.94,6.32 -3.86,12.8 -5.79,19.44 -1.5,4.28 -3.21,8.14 -5.14,11.56 -1.92,2.79 -4.17,4.83 -6.75,6.11 -2.57,1.29 -5.19,1.93 -7.88,1.93 -2.67,0 -5.24,-0.69 -7.7,-2.08 -2.47,-1.4 -4.56,-3.59 -6.27,-6.59 -1.07,-1.93 -2.08,-3.92 -3.05,-5.95 -0.97,-2.03 -1.66,-4.23 -2.09,-6.59 -1.93,-6.43 -3.22,-12.91 -3.85,-19.43 -0.65,-6.54 -1.18,-13.03 -1.61,-19.44 -0.43,-11.58 -0.43,-22.94 0,-34.07 0.43,-11.15 1.28,-22.29 2.57,-33.42 1.06,-7.5 1.88,-15.05 2.41,-22.66 0.54,-7.61 1.12,-15.16 1.77,-22.65 0.42,-1.3 0.53,-2.69 0.32,-4.19 -0.22,-1.49 -0.32,-3.21 -0.32,-5.13 -1.93,1.92 -3.01,3.43 -3.22,4.49 -8.99,14.57 -16.87,29.57 -23.62,44.99 -6.74,15.43 -11.41,31.6 -13.98,48.53 -1.07,4.92 -1.65,9.9 -1.77,14.94 -0.1,5.03 -0.15,10.02 -0.15,14.94 -1.08,17.79 -1.72,35.46 -1.94,53.03 0,1.07 -0.1,2.25 -0.31,3.53 -0.22,1.29 -0.43,2.47 -0.64,3.53 -1.94,5.58 -5.79,8.68 -11.58,9.33 -2.78,0.21 -5.3,-0.38 -7.55,-1.78 -2.26,-1.38 -3.91,-3.58 -4.97,-6.58 -0.44,-1.07 -0.87,-2.25 -1.3,-3.54 -0.42,-1.28 -0.64,-2.67 -0.64,-4.17 -2.36,-20.36 -4.66,-40.65 -6.91,-60.9 -2.24,-20.25 -4.44,-40.54 -6.59,-60.9 -1.07,-9.64 -2.03,-19.01 -2.88,-28.12 -0.87,-9.09 -1.82,-18.26 -2.9,-27.47 -0.64,-4.5 -0.64,-9.1 0,-13.82 0.43,-4.28 1.88,-7.92 4.34,-10.92 2.46,-3 5.51,-4.82 9.16,-5.47 3.63,-0.86 7.17,-0.37 10.6,1.45 3.43,1.82 6.11,4.66 8.04,8.52 2.57,5.35 4.49,11.02 5.79,17.02 1.06,4.5 1.86,9.11 2.4,13.83 0.53,4.71 1.34,9.42 2.41,14.14 0,0.64 0.11,1.39 0.32,2.24 0.22,0.86 0.43,2.04 0.65,3.53 1.07,-1.49 1.87,-2.72 2.41,-3.69 0.53,-0.96 1.01,-1.87 1.45,-2.73 3.85,-6.85 7.7,-13.66 11.56,-20.4 3.86,-6.75 7.93,-13.45 12.21,-20.09 1.5,-2.57 3.16,-4.99 4.98,-7.23 1.82,-2.26 3.7,-4.44 5.62,-6.59 4.93,-4.92 10.39,-7.12 16.4,-6.59 6,0.54 10.93,3.7 14.78,9.48 3.43,4.71 5.67,10.18 6.75,16.39 1.92,8.15 2.57,16.28 1.92,24.43 -0.86,20.78 -2.14,41.88 -3.86,63.3 -0.2,4.93 -0.42,9.81 -0.64,14.63 -0.21,4.81 -0.42,9.69 -0.64,14.62 0,0.86 0.06,1.71 0.17,2.57 0.1,0.85 0.37,1.83 0.8,2.89 0.43,-1.28 0.91,-2.52 1.44,-3.7 0.54,-1.18 1.03,-2.4 1.45,-3.69 5.78,-15 12.11,-29.67 18.96,-44.03 6.85,-14.35 14.78,-28.27 23.77,-41.78 4.3,-6.2 8.74,-12.31 13.34,-18.31 4.61,-6 9.16,-12.1 13.66,-18.32 1.51,-1.71 3.1,-3.32 4.82,-4.82 1.71,-1.5 3.53,-2.79 5.46,-3.85 4.29,-3 8.79,-4.02 13.51,-3.05 4.71,0.97 8.35,3.8 10.92,8.51 1.5,2.35 2.67,4.82 3.53,7.39 0.86,2.57 1.5,5.04 1.93,7.39 1.07,7.07 1.13,13.98 0.16,20.72 -0.96,6.76 -1.97,13.35 -3.05,19.77 -0.86,4.28 -1.61,8.42 -2.25,12.38 -0.64,3.96 -1.4,8.08 -2.25,12.36l-3.85 22.5c-1.07,6.22 -2.09,12.38 -3.06,18.48 -0.97,6.11 -1.98,12.16 -3.05,18.15 -0.43,1.3 -0.64,2.52 -0.64,3.7 0,1.18 0,2.41 0,3.7 0.42,0 0.69,0.05 0.8,0.16 0.11,0.11 0.37,0.16 0.81,0.16 2.99,-3.43 5.77,-6.7 8.35,-9.81 2.57,-3.1 5.36,-6.37 8.36,-9.8 1.71,-1.92 3.32,-3.95 4.81,-6.1 1.51,-2.14 3.11,-4.18 4.83,-6.1 1.06,-1.08 2.08,-2.09 3.05,-3.05 0.97,-0.97 2.09,-1.88 3.37,-2.74 4.93,-4.06 9.54,-4.5 13.82,-1.29zm157.78 1.29c2.15,1.92 3.27,4.18 3.39,6.75 0.09,2.57 -0.71,5.03 -2.42,7.39l-50.78 55.91c0,16.07 -1.01,31.98 -3.05,47.73 -2.03,15.74 -4.55,31.66 -7.55,47.71 -0.65,4.51 -1.45,8.96 -2.41,13.34 -0.96,4.4 -2.1,8.95 -3.38,13.65 -2.35,9.86 -7.17,18.66 -14.46,26.37 -3.85,4.28 -8.19,7.7 -13.01,10.28 -4.82,2.57 -10.23,3.85 -16.23,3.85 -12,0 -20.67,-5.14 -26.02,-15.43 -1.72,-3.21 -2.96,-6.37 -3.7,-9.47 -0.75,-3.11 -1.14,-6.37 -1.14,-9.8 0.23,-13.5 1.51,-26.68 3.87,-39.53 2.35,-12.85 6.85,-25.39 13.49,-37.6 3,-5.79 6.27,-11.46 9.81,-17.03 3.53,-5.58 7.12,-11.14 10.76,-16.71 1.07,-1.71 1.93,-3.48 2.57,-5.31 0.64,-1.81 0.64,-3.9 0,-6.26 -1.72,1.07 -2.68,2.03 -2.9,2.89 -1.92,2.58 -3.85,5.2 -5.77,7.88 -1.93,2.67 -3.87,5.3 -5.79,7.87 -0.86,1.07 -1.71,2.03 -2.57,2.89 -0.86,0.86 -1.82,1.82 -2.89,2.89 -8.79,8.57 -17.67,12.33 -26.68,11.25 -8.99,-1.07 -16.81,-6.75 -23.46,-17.03 -5.14,-8.36 -7.81,-17.36 -8.03,-27 -0.43,-11.13 -0.16,-22.12 0.81,-32.93 0.96,-10.82 2.94,-21.69 5.94,-32.63 1.07,-4.06 2.46,-8.03 4.18,-11.88 0.43,-1.07 0.91,-2.15 1.45,-3.21 0.53,-1.08 1.34,-1.93 2.4,-2.58 1.93,-2.35 4.18,-4.01 6.76,-4.97 2.56,-0.97 5.03,-0.92 7.38,0.15 5.15,1.93 8.04,5.79 8.67,11.57 0,1.72 -0.09,3.37 -0.31,4.98 -0.21,1.61 -0.32,3.27 -0.32,4.98 -1.07,9 -2.08,18.05 -3.06,27.16 -0.96,9.1 -1.98,18.26 -3.05,27.47 -0.64,4.29 -0.64,8.89 0,13.82 0.43,2.36 1.02,4.61 1.77,6.75 0.75,2.14 2.2,4.07 4.34,5.79 1.28,-1.07 2.57,-2.04 3.86,-2.9 1.28,-0.85 2.46,-1.81 3.53,-2.89 7.71,-7.71 14.35,-15.96 19.92,-24.75 5.57,-8.78 10.18,-18.31 13.82,-28.59 1.07,-3.22 1.82,-6.97 2.25,-11.25 0.43,-4.28 0.86,-8.68 1.29,-13.18 0.42,-4.5 0.85,-8.89 1.28,-13.17 0.43,-4.07 1.39,-7.5 2.89,-10.29 3,-5.78 7.4,-8.78 13.19,-8.99 5.77,-0.22 10.49,2.35 14.13,7.71 1.07,1.5 1.98,3.1 2.73,4.82 0.76,1.71 1.34,3.43 1.77,5.14 1.07,5.36 2.19,10.72 3.37,16.07 1.18,5.36 2.3,10.82 3.38,16.39 0.21,0.64 0.42,1.39 0.64,2.25 0.21,0.86 0.43,1.82 0.64,2.89l1.61 21.21 37.6 -41.77c1.71,-1.94 3.91,-2.96 6.58,-3.06 2.68,-0.11 4.99,0.7 6.91,2.41zm-98.01 201.17c0.43,-3 0.96,-5.89 1.61,-8.69 0.64,-2.78 0.96,-5.67 0.96,-8.67 -0.43,-9.64 -0.8,-19.38 -1.13,-29.24 -0.32,-9.86 -0.58,-19.6 -0.79,-29.24 0,-1.72 -0.11,-3.43 -0.33,-5.14 -0.21,-1.72 -0.42,-3.65 -0.63,-5.79 -0.87,0.44 -1.4,0.75 -1.62,0.96 -0.22,0.23 -0.53,0.54 -0.96,0.97 -7.93,12.86 -13.72,26.19 -17.35,40 -3.65,13.83 -4.93,28.23 -3.86,43.22 0.42,1.51 0.86,3.06 1.29,4.67 0.42,1.61 0.95,2.95 1.6,4.02 1.5,3 3.37,4.77 5.63,5.3 2.24,0.54 4.76,0.05 7.55,-1.45 4.06,-2.35 6.74,-6 8.03,-10.92zm-1391.33 -435.64c6.81,2.83 11.76,7.5 14.88,14.02 3.11,6.51 3.26,12.89 0.43,19.13 -1.14,0.57 -3.55,5.38 -7.22,14.45 -3.69,9.07 -9.5,20.68 -17.43,34.85 -9.06,17.57 -18.14,34.29 -27.2,50.15 -7.94,14.17 -16.01,28.62 -24.23,43.35 -8.22,14.74 -15.73,27.49 -22.53,38.25 -2.83,5.1 -5.95,9.64 -9.34,13.61 -3.41,3.96 -7.37,7.93 -11.91,11.89 -11.33,11.34 -24.36,17.99 -39.1,19.98 -14.73,1.99 -29.47,-0.99 -44.2,-8.92 -11.91,-6.24 -21.96,-13.75 -30.18,-22.54 -8.22,-8.77 -15.44,-18.55 -21.67,-29.32 -7.94,-14.72 -13.75,-30.17 -17.43,-46.32 -3.68,-16.15 -6.95,-32.16 -9.77,-48.04 -0.58,-8.48 -1.42,-16.71 -2.55,-24.64 -1.14,-7.93 -2.27,-16.72 -3.41,-26.36 -3.4,2.84 -6.38,5.1 -8.93,6.82 -2.54,1.69 -4.67,3.96 -6.37,6.79 -13.6,14.73 -27.05,29.75 -40.38,45.05 -13.31,15.3 -27.05,30.6 -41.22,45.9 -3.97,4.54 -6.52,9.06 -7.65,13.6 -1.14,4.54 -1.7,9.65 -1.7,15.3 2.27,49.87 3.97,100.02 5.1,150.46 0,4.54 -0.14,8.79 -0.43,12.75 -0.28,3.97 -0.98,7.93 -2.12,11.9 -2.83,14.74 -11.33,23.24 -25.5,25.5 -7.95,1.14 -15.02,0.44 -21.25,-2.11 -6.24,-2.56 -11.05,-6.96 -14.45,-13.19 -3.96,-7.36 -7.23,-14.73 -9.78,-22.1 -2.55,-7.37 -4.38,-15.02 -5.52,-22.95 -3.96,-21.53 -6.96,-43.35 -8.92,-65.45 -2,-22.11 -4.41,-43.92 -7.23,-65.46 -3.97,-28.33 -7.65,-56.24 -11.06,-83.72 -3.39,-27.49 -7.36,-55.4 -11.9,-83.73 -3.96,-28.33 -7.08,-56.38 -9.34,-84.15 -2.27,-27.78 -3.97,-55.82 -5.1,-84.16 -0.57,-19.84 -0.86,-39.81 -0.86,-59.93 0,-20.12 -0.56,-40.1 -1.69,-59.92 0,-5.1 0.13,-10.21 0.42,-15.3 0.28,-5.1 0.99,-10.2 2.13,-15.3 2.83,-11.34 7.08,-20.98 12.75,-28.91 8.49,-11.33 19.83,-16.99 33.99,-16.99 14.16,0 25.51,5.66 34.01,16.99 3.96,4.54 6.93,9.21 8.92,14.03 1.99,4.82 4.11,10.34 6.38,16.57 5.66,18.14 9.63,36.84 11.9,56.11 2.26,19.27 3.68,38.82 4.25,58.65 2.26,36.27 4.11,72.54 5.52,108.81 1.42,36.26 2.7,73.1 3.83,110.5 0,2.83 0,5.95 0,9.35 0,3.39 0.28,7.36 0.85,11.9 2.84,-2.83 5.24,-4.95 7.22,-6.37 1.99,-1.42 3.54,-2.98 4.68,-4.68 14.73,-14.73 29.6,-29.75 44.63,-45.06 15.02,-15.29 29.89,-30.59 44.62,-45.9 5.1,-5.09 7.65,-11.89 7.65,-20.39 1.14,-23.8 2.13,-47.33 2.97,-70.56 0.86,-23.24 1.85,-46.75 2.99,-70.55 1.13,-15.31 2.41,-30.61 3.82,-45.91 1.42,-15.3 3.25,-30.6 5.52,-45.9 0,-4.53 0.29,-8.78 0.86,-12.75 0.56,-3.96 1.97,-7.93 4.24,-11.89 2.28,-6.81 6.24,-12.19 11.9,-16.16 5.67,-3.96 11.62,-6.66 17.85,-8.07 6.24,-1.41 12.75,-1.14 19.56,0.84 6.79,1.99 12.75,5.53 17.85,10.64 3.97,4.52 7.22,9.34 9.77,14.44 2.55,5.1 4.96,10.48 7.23,16.16 1.69,5.1 2.69,10.2 2.97,15.3 0.29,5.1 0.43,10.76 0.43,16.99 0,6.24 0.14,14.45 0.42,24.65 0.28,10.2 0.42,21.53 0.42,34.01 0,12.46 0.15,25.64 0.43,39.52 0.29,13.89 0.42,27.63 0.42,41.24 0,31.72 0.29,66.01 0.86,102.84 1.13,24.37 2.41,48.6 3.82,72.68 1.42,24.08 3.26,48.31 5.52,72.68 0,3.4 0.28,7.51 0.86,12.33 0.57,4.82 1.42,9.64 2.55,14.45 1.14,4.81 2.41,8.78 3.83,11.9 1.41,3.12 3.54,4.67 6.37,4.67 2.27,-0.56 5.53,-2.55 9.77,-5.94 4.25,-3.4 8.36,-7.37 12.33,-11.91 3.97,-4.53 7.65,-8.93 11.05,-13.17 3.4,-4.25 5.67,-7.23 6.8,-8.93 5.67,-7.93 12.47,-18.27 20.4,-31.02 7.93,-12.75 15.58,-25.36 22.95,-37.83 8.5,-14.74 17.01,-30.04 25.5,-45.9 2.83,-6.24 7.51,-10.77 14.03,-13.6 6.51,-2.84 12.89,-2.84 19.12,0zm55.26 126.65c-0.56,11.34 0.72,20.83 3.83,28.48 3.11,7.65 7.23,14.02 12.33,19.12 5.1,5.1 11.04,8.94 17.85,11.48 6.8,2.55 14.17,4.1 22.09,4.68 14.17,1.14 27.35,0 39.54,-3.41 12.18,-3.4 23.93,-9.06 35.27,-17 12.47,-8.49 23.37,-17.98 32.72,-28.48 9.36,-10.47 18,-22.23 25.94,-35.26 5.09,-9.64 10.05,-19.28 14.86,-28.91 4.82,-9.63 9.78,-19.55 14.89,-29.75 2.82,-6.23 5.66,-12.04 8.5,-17.43 2.83,-5.38 5.94,-11.19 9.34,-17.43 4.54,-6.79 10.2,-11.33 17,-13.59 6.81,-2.26 13.32,-1.99 19.55,0.85 14.17,7.36 19.83,19.26 17.01,35.69 -1.14,2.28 -1.7,4.26 -1.7,5.96 0,1.7 -0.28,3.11 -0.85,4.25 -12.47,34 -27.78,65.6 -45.91,94.79 -18.13,29.18 -41.65,55.38 -70.55,78.61 -22.1,18.15 -46.04,30.74 -71.83,37.83 -25.79,7.09 -53.12,8.07 -82.02,2.98 -27.78,-4.53 -51.15,-14.59 -70.13,-30.17 -18.99,-15.6 -33.87,-36.42 -44.63,-62.49 -10.77,-27.2 -15.58,-54.39 -14.45,-81.59 1.14,-27.22 6.38,-52.85 15.72,-76.94 9.35,-24.08 22.1,-45.76 38.25,-65.02 16.16,-19.27 33.87,-34.85 53.14,-46.76 16.43,-10.2 33.43,-17.42 51,-21.67 17.57,-4.25 35.42,-4.68 53.55,-1.28 21.54,3.97 39.81,12.19 54.82,24.65 15.03,12.47 25.93,26.92 32.73,43.35 6.8,16.44 8.92,34.15 6.37,53.14 -2.54,18.97 -10.05,36.68 -22.52,53.12 -18.7,24.94 -40.8,46.18 -66.3,63.75 -16.43,12.46 -34.56,19.83 -54.4,22.1 -18.71,3.4 -35.71,0.85 -51.01,-7.65zm-6.8 -45.05c6.24,-1.7 12.04,-3.12 17.42,-4.25 5.4,-1.14 10.64,-2.55 15.74,-4.25 5.1,-1.13 10.2,-2.41 15.3,-3.82 5.1,-1.43 9.91,-3.55 14.44,-6.37 10.78,-6.24 20.69,-13.61 29.76,-22.12 9.07,-8.49 17.85,-17.84 26.35,-28.05 3.4,-4.52 6.24,-9.06 8.5,-13.59 5.1,-13.04 4.25,-24.52 -2.55,-34.42 -6.81,-9.93 -17.01,-14.32 -30.6,-13.18 -5.1,1.12 -10.34,2.4 -15.73,3.82 -5.38,1.41 -10.35,3.54 -14.88,6.37 -20.97,14.16 -36.26,31.46 -45.89,51.86 -9.64,20.4 -15.59,43.07 -17.86,68zm597.58 -82.45c6.24,3.4 10.77,8.21 13.6,14.45 2.84,6.23 2.55,13.03 -0.85,20.4 0,0 -1.27,3.11 -3.82,9.35 -2.55,6.23 -6.09,14.16 -10.63,23.8 -4.53,9.63 -10.05,20.96 -16.58,34 -6.51,13.03 -13.45,26.35 -20.82,39.95 -3.4,5.67 -6.66,11.34 -9.78,17 -3.12,5.67 -6.37,11.34 -9.77,17.01 -6.8,13.59 -14.74,26.77 -23.8,39.52 -9.07,12.76 -18.42,25.07 -28.05,36.98 -6.24,7.93 -13.04,15.01 -20.4,21.24 -7.37,6.24 -15.02,11.91 -22.96,17.01 -14.17,10.21 -29.04,15.44 -44.62,15.73 -15.58,0.27 -31.02,-3.55 -46.32,-11.48 -22.67,-11.9 -40.81,-28.05 -54.41,-48.46 -8.51,-11.33 -15.44,-23.08 -20.82,-35.27 -5.4,-12.19 -10.35,-24.79 -14.88,-37.82 -16.44,-46.47 -25.93,-93.51 -28.47,-141.11 -2.55,-47.6 0.13,-95.77 8.07,-144.51 3.96,-24.37 8.92,-48.16 14.88,-71.41 5.94,-23.23 13.73,-46.18 23.36,-68.85 5.67,-14.17 12.33,-27.76 19.99,-40.8 7.65,-13.03 17.13,-25.21 28.47,-36.55 4.54,-5.09 9.49,-9.92 14.88,-14.45 5.38,-4.53 10.91,-8.78 16.57,-12.75 11.34,-6.8 23.1,-10.91 35.27,-12.32 12.19,-1.42 23.67,-0.15 34.43,3.82 10.78,3.97 20.4,10.34 28.9,19.13 8.51,8.79 15.31,19.4 20.4,31.87 4.55,11.9 7.51,24.51 8.93,37.83 1.42,13.32 2.13,26.49 2.13,39.52 -2.83,44.78 -10.77,87.84 -23.8,129.21 -24.93,75.37 -59.51,146.78 -103.71,214.21 -1.13,2.83 -2.41,5.8 -3.82,8.93 -1.41,3.11 -1.85,6.09 -1.28,8.92 1.14,13.04 3.26,26.36 6.38,39.95 3.11,13.6 8.63,26.07 16.58,37.41 5.1,7.93 9.49,13.73 13.17,17.41 3.68,3.69 7.51,5.82 11.47,6.39 3.97,0.57 8.07,-0.57 12.33,-3.39 4.25,-2.85 9.49,-6.53 15.72,-11.07 10.78,-8.49 20.41,-17.99 28.91,-28.47 8.5,-10.49 16.14,-21.39 22.94,-32.72 12.48,-19.84 24.51,-39.67 36.13,-59.51 11.62,-19.83 23.09,-39.67 34.43,-59.5 0.57,-1.13 1.13,-1.99 1.69,-2.55 0.58,-0.57 0.86,-1.42 0.86,-2.54 1.14,-1.71 1.99,-3.55 2.54,-5.54 0.58,-1.98 1.43,-3.82 2.56,-5.52 2.83,-6.24 7.51,-10.92 14.03,-14.03 6.51,-3.12 13.17,-3.26 19.97,-0.42zm-235.46 -191.27c-2.83,29.48 -5.24,58.67 -7.23,87.56 -1.97,28.91 -3.82,58.09 -5.52,87.55 0,0 0.86,2.56 2.55,7.66 3.96,-8.51 7.51,-16.29 10.62,-23.38 3.12,-7.09 6.67,-14.31 10.63,-21.67 11.34,-23.25 21.4,-46.62 30.18,-70.13 8.78,-23.52 15.45,-48.03 19.97,-73.53 3.41,-19.27 5.11,-37.97 5.11,-56.11 0,-6.23 -0.86,-12.6 -2.56,-19.12 -1.69,-6.51 -3.4,-12.89 -5.1,-19.12 -2.82,-7.94 -6.38,-12.2 -10.62,-12.76 -4.26,-0.56 -8.93,2.84 -14.02,10.21 -2.84,2.82 -5.11,6.09 -6.81,9.77 -1.7,3.68 -3.68,7.5 -5.95,11.47 -5.67,13.6 -10.34,27.06 -14.02,40.38 -3.69,13.32 -6.09,27.05 -7.23,41.22zm504.08 281.37c-20.97,15.29 -36.98,32.59 -48.03,51.85 -11.05,19.27 -16.58,41.37 -16.58,66.31 -1.13,5.09 -1.13,10.34 0,15.72 1.14,5.39 3.97,10.34 8.51,14.88 7.36,-1.7 12.89,-5.1 16.57,-10.2 3.69,-5.1 7.22,-10.48 10.62,-16.16 9.07,-18.13 15.87,-36.54 20.4,-55.24 4.55,-18.71 7.94,-38.26 10.21,-58.66 0,-0.57 0,-1.41 0,-2.55 0,-1.13 -0.57,-3.12 -1.7,-5.95zm-1105.55 296.26c-6.24,1.13 -12.05,1.83 -17.43,2.12 -5.38,0.29 -10.62,0.99 -15.72,2.13 -14.17,0.56 -27.92,1.12 -41.24,1.69 -13.31,0.57 -27.06,1.13 -41.22,1.71 -3.41,1.13 -6.94,1.27 -10.63,0.42 -3.68,-0.85 -6.94,-1.84 -9.77,-2.97 -12.47,-4.54 -19.55,-12.47 -21.25,-23.81 -1.7,-11.33 2.26,-21.25 11.9,-29.75 3.96,-2.83 8.36,-5.38 13.17,-7.65 4.82,-2.26 9.49,-3.96 14.03,-5.1 10.2,-2.83 20.4,-5.1 30.6,-6.8 10.2,-1.7 20.68,-3.68 31.45,-5.95 17.57,-2.83 35.14,-5.38 52.7,-7.64 17.57,-2.28 34.85,-3.97 51.86,-5.11 16.43,-1.13 32.3,-1.55 47.6,-1.27 15.3,0.28 30.88,0.41 46.75,0.41 17.57,0.58 35.13,1.14 52.71,1.71 17.56,0.57 35.41,1.13 53.55,1.7 2.83,1.14 6.08,1.42 9.77,0.85 3.69,-0.57 7.23,-1.13 10.62,-1.7 11.91,-1.13 20.84,2.13 26.78,9.78 5.95,7.65 6.66,17.13 2.13,28.48 -5.1,12.46 -13.89,20.39 -26.35,23.79 -4.53,1.14 -9.07,1.84 -13.6,2.12 -4.54,0.3 -9.35,1 -14.46,2.13 -20.4,1.14 -40.8,2.41 -61.2,3.83 -20.4,1.41 -41.36,2.69 -62.9,3.82 -3.97,0 -7.65,0.15 -11.06,0.42 -3.4,0.29 -7.36,0.44 -11.89,0.44 0,6.23 -0.85,11.89 -2.55,16.99 -0.57,37.4 -1.13,74.81 -1.71,112.21 -0.56,37.41 -1.12,74.81 -1.69,112.2 -1.14,54.41 -1.84,108.24 -2.13,161.52 -0.28,53.26 -0.98,106.81 -2.12,160.65 0,6.24 0.29,12.89 0.85,19.97 0.56,7.09 1.12,14.04 1.7,20.83 1.7,17.57 -4.25,29.18 -17.85,34.85 -14.74,6.24 -28.33,3.12 -40.8,-9.35 -9.64,-7.93 -15.02,-19.84 -16.16,-35.7 -1.13,-14.74 -2.26,-29.32 -3.4,-43.78 -1.13,-14.45 -2.25,-29.04 -3.39,-43.78 -2.83,-39.66 -5.39,-79.05 -7.65,-118.14 -2.27,-39.11 -4.26,-78.49 -5.96,-118.16 -2.27,-41.38 -2.97,-82.74 -2.13,-124.11 0.86,-41.37 3.55,-82.73 8.09,-124.11l0 -11.89z"/>
  </g>
 </g>
</svg>
